<svg xmlns="http://www.w3.org/2000/svg" viewBox="0 0 1424 420" role="img" aria-label="Uhome logo">
  <path d="M 213.0 399.5 L 181.0 397.5 L 152.0 390.5 L 136.0 384.5 L 104.0 367.5 L 74.0 342.5 L 53.5 318.0 L 36.5 288.0 L 24.5 253.0 L 19.5 218.0 L 21.5 181.0 L 25.5 161.0 L 31.5 142.0 L 46.5 111.0 L 64.5 86.0 L 92.0 59.5 L 121.0 40.5 L 155.0 26.5 L 191.0 19.5 L 229.0 19.5 L 264.0 26.5 L 284.0 33.5 L 304.0 43.5 L 330.0 61.5 L 353.5 84.0 L 364.5 98.0 L 376.5 117.0 L 391.5 152.0 L 399.5 192.0 L 399.5 226.0 L 396.5 247.0 L 391.5 266.0 L 384.5 285.0 L 376.5 301.0 L 367.5 316.0 L 353.5 334.0 L 324.0 361.5 L 295.0 379.5 L 274.0 388.5 L 253.0 394.5 L 213.0 399.5 Z M 217.5 363.0 L 238.0 360.5 L 258.0 354.5 L 276.0 344.5 L 292.5 329.0 L 305.5 307.0 L 312.5 283.0 L 314.5 264.0 L 314.5 204.0 L 353.5 203.0 L 311.5 160.0 L 311.5 76.0 L 247.0 75.5 L 246.0 91.5 L 209.0 54.5 L 66.5 203.0 L 104.5 204.0 L 104.5 258.0 L 106.5 282.0 L 113.5 307.0 L 126.5 329.0 L 143.0 344.5 L 165.0 356.5 L 178.0 360.5 L 197.0 363.5 L 217.5 363.0 Z M 220.0 344.5 L 195.0 344.5 L 171.0 338.5 L 154.0 329.5 L 139.5 315.0 L 129.5 296.0 L 124.5 275.0 L 123.5 186.0 L 110.5 185.0 L 123.5 170.0 L 210.0 81.5 L 265.0 138.5 L 265.5 95.0 L 292.5 95.0 L 292.5 167.0 L 308.5 184.0 L 308.0 185.5 L 295.5 186.0 L 295.5 266.0 L 291.5 290.0 L 285.5 305.0 L 278.5 316.0 L 260.0 332.5 L 238.0 341.5 L 220.0 344.5 Z M 632.0 351.5 L 576.5 351.0 L 576.0 253.5 L 499.0 253.5 L 498.5 351.0 L 441.5 351.0 L 442.0 106.5 L 498.5 107.0 L 499.0 204.5 L 576.0 204.5 L 576.5 107.0 L 632.5 107.0 L 632.0 351.5 Z M 220.5 318.0 L 235.0 314.5 L 248.0 306.5 L 255.5 298.0 L 261.5 287.0 L 266.5 264.0 L 266.5 186.0 L 247.5 186.0 L 247.5 265.0 L 245.5 276.0 L 241.5 285.0 L 234.0 293.5 L 227.0 297.5 L 206.0 300.5 L 199.0 299.5 L 189.0 295.5 L 179.5 287.0 L 176.5 282.0 L 173.5 273.0 L 171.5 257.0 L 171.5 186.0 L 154.0 185.5 L 153.5 269.0 L 155.5 279.0 L 161.5 294.0 L 171.0 305.5 L 185.0 314.5 L 200.0 318.5 L 220.5 318.0 Z M 757.0 356.5 L 729.0 355.5 L 712.0 351.5 L 696.0 344.5 L 680.0 332.5 L 670.5 322.0 L 662.5 308.0 L 657.5 291.0 L 656.5 267.0 L 658.5 256.0 L 662.5 244.0 L 671.5 229.0 L 678.0 221.5 L 696.0 207.5 L 711.0 200.5 L 730.0 195.5 L 767.0 195.5 L 786.0 200.5 L 802.0 208.5 L 813.0 216.5 L 826.5 231.0 L 833.5 243.0 L 838.5 258.0 L 838.5 293.0 L 834.5 306.0 L 829.5 316.0 L 821.5 327.0 L 806.0 340.5 L 792.0 348.5 L 777.0 353.5 L 757.0 356.5 Z M 1123.0 351.5 L 1070.5 351.0 L 1070.5 260.0 L 1066.5 249.0 L 1062.0 243.5 L 1054.0 238.5 L 1044.0 237.5 L 1035.0 238.5 L 1030.0 241.5 L 1023.5 249.0 L 1020.5 257.0 L 1020.0 351.5 L 966.5 351.0 L 966.5 258.0 L 961.5 247.0 L 956.0 241.5 L 946.0 237.5 L 936.0 237.5 L 926.0 241.5 L 921.5 247.0 L 917.5 256.0 L 916.5 351.0 L 864.0 351.5 L 863.5 200.0 L 916.0 199.5 L 917.0 214.5 L 926.0 206.5 L 940.0 198.5 L 954.0 194.5 L 968.0 194.5 L 983.0 197.5 L 997.0 203.5 L 1005.5 210.0 L 1014.0 221.5 L 1032.0 204.5 L 1043.0 198.5 L 1053.0 195.5 L 1079.0 195.5 L 1100.0 203.5 L 1106.0 207.5 L 1116.5 219.0 L 1121.5 230.0 L 1123.5 240.0 L 1123.0 351.5 Z M 1236.0 356.5 L 1221.0 356.5 L 1205.0 353.5 L 1196.0 350.5 L 1177.0 339.5 L 1161.5 325.0 L 1154.5 315.0 L 1147.5 299.0 L 1144.5 284.0 L 1144.5 267.0 L 1147.5 252.0 L 1153.5 238.0 L 1162.5 225.0 L 1173.0 214.5 L 1187.0 204.5 L 1204.0 197.5 L 1219.0 194.5 L 1239.0 194.5 L 1251.0 196.5 L 1265.0 200.5 L 1281.0 209.5 L 1294.5 222.0 L 1299.5 229.0 L 1307.5 247.0 L 1310.5 263.0 L 1310.0 283.5 L 1200.5 284.0 L 1200.5 290.0 L 1204.5 300.0 L 1212.0 307.5 L 1222.0 312.5 L 1247.0 312.5 L 1259.0 306.5 L 1270.0 296.5 L 1307.5 316.0 L 1305.5 321.0 L 1295.5 333.0 L 1277.0 346.5 L 1258.0 353.5 L 1236.0 356.5 Z M 1258.5 253.0 L 1253.0 239.5 L 1245.0 232.5 L 1235.0 229.5 L 1225.0 229.5 L 1215.0 232.5 L 1205.5 241.0 L 1201.5 251.0 L 1202.0 253.5 L 1258.5 253.0 Z M 755.5 310.0 L 762.0 308.5 L 769.0 304.5 L 778.5 294.0 L 782.5 284.0 L 782.5 267.0 L 778.5 257.0 L 769.0 246.5 L 755.0 240.5 L 742.0 240.5 L 729.0 245.5 L 718.5 256.0 L 713.5 269.0 L 713.5 283.0 L 718.5 296.0 L 727.0 304.5 L 734.0 308.5 L 742.0 310.5 L 755.5 310.0 Z M 1372.0 356.5 L 1360.0 355.5 L 1350.0 351.5 L 1339.5 341.0 L 1334.5 329.0 L 1334.5 315.0 L 1339.5 303.0 L 1350.0 292.5 L 1363.0 287.5 L 1374.0 287.5 L 1382.0 289.5 L 1390.0 294.5 L 1398.5 304.0 L 1401.5 310.0 L 1403.5 320.0 L 1401.5 334.0 L 1395.5 344.0 L 1387.0 351.5 L 1372.0 356.5 Z" fill="#5271FF" fill-rule="evenodd"/>
  <path d="M 214.0 363.5 L 190.0 362.5 L 168.0 357.5 L 158.0 353.5 L 143.0 344.5 L 127.5 330.0 L 114.5 309.0 L 106.5 281.0 L 105.5 205.0 L 104.0 203.5 L 66.5 203.0 L 210.0 54.5 L 246.0 91.5 L 247.0 75.5 L 311.5 76.0 L 311.5 160.0 L 353.5 203.0 L 314.5 204.0 L 314.5 260.0 L 312.5 282.0 L 303.5 311.0 L 291.5 330.0 L 277.0 343.5 L 260.0 353.5 L 238.0 360.5 L 214.0 363.5 Z M 222.5 344.0 L 242.0 340.5 L 260.0 332.5 L 272.0 323.5 L 283.5 309.0 L 292.5 287.0 L 295.5 268.0 L 295.5 186.0 L 309.5 185.0 L 292.5 167.0 L 292.5 95.0 L 265.5 95.0 L 265.0 138.5 L 210.0 81.5 L 109.5 185.0 L 123.5 186.0 L 124.5 276.0 L 130.5 299.0 L 139.5 315.0 L 154.0 329.5 L 173.0 339.5 L 194.0 344.5 L 222.5 344.0 Z M 219.0 318.5 L 201.0 318.5 L 181.0 312.5 L 164.5 298.0 L 157.5 285.0 L 153.5 267.0 L 154.0 185.5 L 171.5 186.0 L 171.5 262.0 L 175.5 280.0 L 179.5 287.0 L 187.0 294.5 L 195.0 298.5 L 204.0 300.5 L 225.0 298.5 L 234.0 293.5 L 240.5 287.0 L 244.5 279.0 L 247.5 267.0 L 247.5 186.0 L 266.5 186.0 L 266.5 259.0 L 265.5 271.0 L 260.5 289.0 L 254.5 299.0 L 244.0 309.5 L 232.0 315.5 L 219.0 318.5 Z" fill="#FFFFFF" fill-rule="evenodd"/>
</svg>
